<svg width="26" height="25" viewBox="0 0 26 25" fill="none" xmlns="http://www.w3.org/2000/svg">
<path d="M24.2091 19.5557L19.3019 14.6484C19.0252 14.3717 18.6793 14.2334 18.2643 14.2334C17.8492 14.2334 17.4952 14.3717 17.2023 14.6484L15.9083 15.9424C15.713 16.1377 15.5828 16.3696 15.5177 16.6382C15.4526 16.9067 15.4607 17.1631 15.5421 17.4072L15.0538 17.8955C14.8911 18.0583 14.3336 17.9606 13.3815 17.6025C12.4293 17.2445 11.3103 16.4225 10.0245 15.1367C8.73872 13.8509 7.91678 12.7319 7.5587 11.7798C7.20063 10.8276 7.10297 10.2702 7.26574 10.1074L7.75402 9.61914C7.81912 9.63542 7.88829 9.65169 7.96154 9.66797C8.03478 9.68425 8.10395 9.69238 8.16905 9.69238C8.36437 9.69238 8.55154 9.65576 8.73058 9.58252C8.90962 9.50928 9.07238 9.39941 9.21886 9.25293L10.5128 7.95898C10.7895 7.66602 10.9278 7.31201 10.9278 6.89697C10.9278 6.48193 10.7895 6.13607 10.5128 5.85938L5.60558 0.952148C5.45909 0.805664 5.29633 0.695801 5.1173 0.622559C4.93826 0.549316 4.74295 0.512695 4.53136 0.512695C4.33605 0.512695 4.14887 0.549316 3.96984 0.622559C3.7908 0.695801 3.62804 0.805664 3.48156 0.952148L2.21202 2.22168C2.01671 2.41699 1.8865 2.64893 1.8214 2.91748C1.75629 3.18604 1.75629 3.45052 1.8214 3.71094C1.8214 3.71094 1.75223 3.78011 1.61388 3.91846C1.47553 4.0568 1.40636 4.12598 1.40636 4.12598C0.722766 4.89095 0.319934 5.84717 0.197864 6.99463C0.0757936 8.14209 0.242623 9.42383 0.698352 10.8398C0.909941 11.5397 1.18663 12.2477 1.52843 12.9639C1.87023 13.6637 2.26899 14.3636 2.72472 15.0635C3.18045 15.7633 3.68501 16.4551 4.23839 17.1387C4.79178 17.8223 5.38585 18.4896 6.02062 19.1406C6.67166 19.7754 7.33898 20.3695 8.02257 20.9229C8.70616 21.4762 9.3979 21.9808 10.0978 22.4365C10.7976 22.8923 11.4975 23.291 12.1974 23.6328C12.9135 23.9746 13.6215 24.2513 14.3214 24.4629C14.8748 24.6419 15.4119 24.7762 15.9327 24.8657C16.4536 24.9552 16.95 25 17.422 25C18.2032 25 18.9112 24.882 19.546 24.646C20.1808 24.41 20.726 24.0641 21.1818 23.6084L21.4503 23.3398C21.5317 23.3561 21.6049 23.3683 21.67 23.3765C21.7351 23.3846 21.8002 23.3887 21.8653 23.3887C22.0769 23.3887 22.2722 23.3521 22.4513 23.2788C22.6303 23.2056 22.7931 23.0957 22.9396 22.9492L24.2091 21.6797C24.5021 21.3867 24.6485 21.0327 24.6485 20.6177C24.6485 20.2026 24.5021 19.8486 24.2091 19.5557ZM4.53136 2.00195L9.43859 6.90918L8.16905 8.17871L3.26183 3.27148L4.53136 2.00195ZM20.1319 22.5342C19.5948 23.0713 18.8624 23.3846 17.9347 23.4741C17.0069 23.5636 15.949 23.4212 14.7609 23.0469C14.1261 22.8353 13.4832 22.5749 12.8321 22.2656C12.1811 21.9401 11.5301 21.5698 10.879 21.1548C10.228 20.7397 9.58507 20.2718 8.9503 19.751C8.31554 19.2301 7.69705 18.6686 7.09484 18.0664C6.49262 17.4642 5.9311 16.8457 5.41027 16.2109C4.88943 15.5762 4.4215 14.9333 4.00646 14.2822C3.59142 13.6312 3.22114 12.9801 2.89562 12.3291C2.58637 11.6781 2.32596 11.0352 2.11437 10.4004C1.74002 9.21224 1.5976 8.1543 1.68712 7.22656C1.77664 6.29883 2.08995 5.56641 2.62706 5.0293L2.74913 4.88281L6.55773 8.69141L6.21593 9.0332C5.85786 9.40755 5.67882 9.87142 5.67882 10.4248C5.6951 10.9782 5.84158 11.5804 6.11827 12.2314C6.39497 12.8825 6.78559 13.5579 7.29015 14.2578C7.79471 14.9414 8.34809 15.5924 8.9503 16.2109C9.87804 17.1224 10.8668 17.8955 11.9166 18.5303C12.9664 19.165 13.9064 19.4824 14.7364 19.4824C14.9969 19.4824 15.2451 19.4377 15.4811 19.3481C15.7171 19.2586 15.9327 19.1243 16.128 18.9453L16.4698 18.6035L20.2784 22.4121L20.1319 22.5342ZM21.8898 21.8994L16.9825 16.9922L18.2521 15.7227L23.1593 20.6299C23.1593 20.6299 22.9477 20.8415 22.5245 21.2646C22.1013 21.6878 21.8898 21.8994 21.8898 21.8994ZM19.1554 6.00586C18.4392 5.30599 17.6214 4.76481 16.7018 4.38232C15.7822 3.99984 14.8178 3.80859 13.8087 3.80859C13.5971 3.80859 13.4181 3.88184 13.2716 4.02832C13.1251 4.1748 13.0519 4.3457 13.0519 4.54102C13.0519 4.7526 13.1251 4.93164 13.2716 5.07812C13.4181 5.22461 13.5971 5.29785 13.8087 5.29785C14.6225 5.29785 15.3956 5.45247 16.128 5.76172C16.8605 6.07096 17.5115 6.51042 18.0812 7.08008C18.6508 7.64974 19.0903 8.30078 19.3995 9.0332C19.7088 9.76562 19.8634 10.5387 19.8634 11.3525C19.8634 11.5641 19.9366 11.7432 20.0831 11.8896C20.2296 12.0361 20.4086 12.1094 20.6202 12.1094C20.8155 12.1094 20.9864 12.0361 21.1329 11.8896C21.2794 11.7432 21.3526 11.5641 21.3526 11.3525C21.3526 10.3434 21.1614 9.37907 20.7789 8.45947C20.3964 7.53988 19.8553 6.72201 19.1554 6.00586ZM21.8409 3.32031C21.3038 2.7832 20.726 2.3112 20.1075 1.9043C19.489 1.48112 18.838 1.13119 18.1544 0.854492C17.4708 0.577799 16.7628 0.366211 16.0304 0.219727C15.3142 0.0732422 14.5737 0 13.8087 0C13.5971 0 13.4181 0.0732422 13.2716 0.219727C13.1251 0.366211 13.0519 0.545248 13.0519 0.756836C13.0519 0.952148 13.1251 1.12305 13.2716 1.26953C13.4181 1.41602 13.5971 1.48926 13.8087 1.48926C15.1271 1.48926 16.3844 1.73747 17.5807 2.23389C18.777 2.73031 19.839 3.45052 20.7667 4.39453C21.7107 5.32227 22.4309 6.38428 22.9274 7.58057C23.4238 8.77686 23.672 10.0342 23.672 11.3525C23.672 11.5641 23.7452 11.7432 23.8917 11.8896C24.0382 12.0361 24.2091 12.1094 24.4044 12.1094C24.616 12.1094 24.795 12.0361 24.9415 11.8896C25.088 11.7432 25.1612 11.5641 25.1612 11.3525C25.1612 10.5876 25.088 9.847 24.9415 9.13086C24.795 8.39844 24.5834 7.69043 24.3068 7.00684C24.0301 6.32324 23.6801 5.6722 23.2569 5.05371C22.85 4.43522 22.378 3.85742 21.8409 3.32031ZM16.4454 8.71582C16.0873 8.34147 15.6845 8.06478 15.2369 7.88574C14.7893 7.70671 14.3133 7.61719 13.8087 7.61719C13.5971 7.61719 13.4181 7.69043 13.2716 7.83691C13.1251 7.9834 13.0519 8.1543 13.0519 8.34961C13.0519 8.5612 13.1251 8.74023 13.2716 8.88672C13.4181 9.0332 13.5971 9.10645 13.8087 9.10645C14.1179 9.10645 14.4068 9.16341 14.6754 9.27734C14.944 9.39128 15.184 9.55404 15.3956 9.76562C15.6072 9.97721 15.77 10.2173 15.8839 10.4858C15.9978 10.7544 16.0548 11.0433 16.0548 11.3525C16.0548 11.5641 16.128 11.7432 16.2745 11.8896C16.421 12.0361 16.6 12.1094 16.8116 12.1094C17.0069 12.1094 17.1778 12.0361 17.3243 11.8896C17.4708 11.7432 17.5441 11.5641 17.5441 11.3525C17.5441 10.848 17.4545 10.3719 17.2755 9.92432C17.0965 9.47673 16.8198 9.07389 16.4454 8.71582Z" fill="#EEC044"/>
</svg>
