<svg width="15" height="13" viewBox="0 0 15 13" fill="none" xmlns="http://www.w3.org/2000/svg">
<path d="M13.0645 3.64258C13.0645 3.70638 13.0645 3.77018 13.0645 3.83398C13.0645 3.89779 13.0645 3.96159 13.0645 4.02539C13.0645 4.97331 12.8867 5.93034 12.5312 6.89648C12.1758 7.86263 11.654 8.73763 10.9658 9.52148C10.2777 10.3053 9.42318 10.9479 8.40234 11.4492C7.39062 11.9414 6.22396 12.1875 4.90234 12.1875C4.5013 12.1875 4.10482 12.1602 3.71289 12.1055C3.32096 12.0417 2.94043 11.9551 2.57129 11.8457C2.20215 11.7363 1.8444 11.6042 1.49805 11.4492C1.15169 11.2852 0.81901 11.1029 0.5 10.9023C0.61849 10.9115 0.734701 10.9183 0.848633 10.9229C0.962565 10.9274 1.07878 10.9297 1.19727 10.9297C1.86263 10.9297 2.49837 10.8226 3.10449 10.6084C3.71061 10.3942 4.25977 10.0957 4.75195 9.71289C4.12305 9.69466 3.56478 9.4987 3.07715 9.125C2.58952 8.7513 2.25456 8.2819 2.07227 7.7168C2.16341 7.72591 2.25228 7.73503 2.33887 7.74414C2.42546 7.75326 2.51888 7.75781 2.61914 7.75781C2.74674 7.75781 2.87435 7.75098 3.00195 7.7373C3.12956 7.72363 3.2526 7.69857 3.37109 7.66211C2.71484 7.52539 2.16797 7.19727 1.73047 6.67773C1.29297 6.1582 1.07422 5.54753 1.07422 4.8457V4.81836C1.26562 4.91862 1.4707 5.00065 1.68945 5.06445C1.9082 5.12826 2.13151 5.16471 2.35938 5.17383C1.97656 4.91862 1.66895 4.58138 1.43652 4.16211C1.2041 3.74284 1.08789 3.28255 1.08789 2.78125C1.08789 2.51693 1.12207 2.264 1.19043 2.02246C1.25879 1.78092 1.35221 1.55534 1.4707 1.3457C1.82617 1.77409 2.22266 2.16602 2.66016 2.52148C3.09766 2.87695 3.56706 3.18457 4.06836 3.44434C4.56966 3.7041 5.10286 3.91146 5.66797 4.06641C6.22396 4.22135 6.79818 4.3125 7.39062 4.33984C7.3724 4.23047 7.35645 4.12109 7.34277 4.01172C7.3291 3.90234 7.32227 3.79297 7.32227 3.68359C7.32227 3.29167 7.39518 2.91797 7.54102 2.5625C7.69596 2.21615 7.90332 1.91309 8.16309 1.65332C8.42285 1.39355 8.72591 1.19075 9.07227 1.04492C9.41862 0.889974 9.79232 0.8125 10.1934 0.8125C10.6035 0.8125 10.9886 0.894531 11.3486 1.05859C11.7087 1.22266 12.0208 1.44141 12.2852 1.71484C12.6133 1.66016 12.93 1.57357 13.2354 1.45508C13.5407 1.33659 13.8301 1.19531 14.1035 1.03125C14.0033 1.35938 13.8438 1.66016 13.625 1.93359C13.4062 2.20703 13.1465 2.43034 12.8457 2.60352C13.1374 2.57617 13.4222 2.52376 13.7002 2.44629C13.9782 2.36882 14.2448 2.27539 14.5 2.16602C14.3086 2.44857 14.0898 2.71517 13.8438 2.96582C13.5977 3.21647 13.3379 3.44206 13.0645 3.64258Z" fill="white"/>
</svg>
