<svg width="81" height="81" viewBox="0 0 81 81" fill="none" xmlns="http://www.w3.org/2000/svg">
<rect x="0.980469" y="0.769897" width="80" height="80" rx="8" fill="#C5CE38"/>
<g clip-path="url(#clip0_4138_1132)">
<path d="M30.4336 46.5804C29.8802 46.5804 29.4163 46.7676 29.042 47.142C28.6676 47.5163 28.4805 47.9802 28.4805 48.5336C28.4805 49.087 28.6676 49.5508 29.042 49.9252C29.4163 50.2995 29.8802 50.4867 30.4336 50.4867C30.987 50.4867 31.4508 50.2995 31.8252 49.9252C32.1995 49.5508 32.3867 49.087 32.3867 48.5336C32.3867 47.9802 32.1995 47.5163 31.8252 47.142C31.4508 46.7676 30.987 46.5804 30.4336 46.5804ZM30.4336 34.0804C28.4479 34.0804 26.5762 34.4548 24.8184 35.2035C23.0605 35.9847 21.5306 37.0264 20.2285 38.3285C18.9264 39.6306 17.8848 41.1605 17.1035 42.9183C16.3548 44.6761 15.9805 46.5479 15.9805 48.5336C15.9805 50.5192 16.3548 52.391 17.1035 54.1488C17.8848 55.9066 18.9264 57.4366 20.2285 58.7386C21.5306 60.0407 23.0605 61.0824 24.8184 61.8636C26.5762 62.6123 28.4479 62.9867 30.4336 62.9867C32.4193 62.9867 34.291 62.6123 36.0488 61.8636C37.8066 61.0824 39.3366 60.0407 40.6387 58.7386C41.9408 57.4366 42.9824 55.9066 43.7637 54.1488C44.5124 52.391 44.8867 50.5192 44.8867 48.5336C44.8867 46.5479 44.5124 44.6761 43.7637 42.9183C42.9824 41.1605 41.9408 39.6306 40.6387 38.3285C39.3366 37.0264 37.8066 35.9847 36.0488 35.2035C34.291 34.4548 32.4193 34.0804 30.4336 34.0804ZM30.4336 53.4164C29.099 53.4164 27.9515 52.9362 26.9912 51.976C26.0309 51.0157 25.5508 49.8682 25.5508 48.5336C25.5508 47.1989 26.0309 46.0515 26.9912 45.0912C27.9515 44.1309 29.099 43.6508 30.4336 43.6508C31.7682 43.6508 32.9157 44.1309 33.876 45.0912C34.8363 46.0515 35.3164 47.1989 35.3164 48.5336C35.3164 49.8682 34.8363 51.0157 33.876 51.976C32.9157 52.9362 31.7682 53.4164 30.4336 53.4164ZM48.5488 33.348L44.9355 21.4828H47.1816C47.6048 21.4828 47.9548 21.3363 48.2314 21.0433C48.5081 20.7504 48.6465 20.4086 48.6465 20.0179C48.6465 19.6273 48.5081 19.2855 48.2314 18.9926C47.9548 18.6996 47.6048 18.5531 47.1816 18.5531H36.0977V32.0785C36.5859 32.2738 37.0579 32.4691 37.5137 32.6644C37.9694 32.8597 38.4251 33.0876 38.8809 33.348H48.5488ZM33.168 31.3461V18.5531H25.2578C24.9648 18.5531 24.6963 18.6426 24.4521 18.8217C24.208 19.0007 24.0208 19.2204 23.8906 19.4808C23.8581 19.5459 23.8337 19.6273 23.8174 19.725C23.8011 19.8226 23.793 19.904 23.793 19.9691C23.793 20.0017 23.793 20.0179 23.793 20.0179V32.4691C24.8346 32.0459 25.9089 31.7204 27.0156 31.4926C28.1224 31.2647 29.2617 31.1508 30.4336 31.1508C30.8893 31.1508 31.3451 31.167 31.8008 31.1996C32.2565 31.2321 32.7122 31.281 33.168 31.3461ZM65.9805 56.7367C65.9805 58.462 65.3701 59.9349 64.1494 61.1556C62.9287 62.3763 61.4557 62.9867 59.7305 62.9867C58.0052 62.9867 56.5404 62.3763 55.3359 61.1556C54.1315 59.9349 53.5293 58.462 53.5293 56.7367C53.5293 55.0114 54.1315 53.5466 55.3359 52.3422C56.5404 51.1377 58.0052 50.5355 59.7305 50.5355C61.4557 50.5355 62.9287 51.1377 64.1494 52.3422C65.3701 53.5466 65.9805 55.0114 65.9805 56.7367ZM60.0234 41.2094H63.1484C62.7904 40.1351 62.2044 39.1911 61.3906 38.3773C60.5768 37.5635 59.6328 36.9776 58.5586 36.6195V39.7445C58.5586 40.1351 58.7051 40.4769 58.998 40.7699C59.291 41.0629 59.6328 41.2094 60.0234 41.2094ZM63.5391 48.4359V44.139H60.0234C58.819 44.139 57.7855 43.7077 56.9229 42.8451C56.0602 41.9825 55.6289 40.9489 55.6289 39.7445V36.3265C55.6289 36.294 55.6289 36.2696 55.6289 36.2533C55.6289 36.237 55.6289 36.2289 55.6289 36.2289H42.6895C44.2845 37.7914 45.5378 39.6306 46.4492 41.7465C47.3607 43.8623 47.8164 46.1247 47.8164 48.5336C47.8164 49.4776 47.7432 50.4135 47.5967 51.3412C47.4502 52.2689 47.2305 53.156 46.9375 54.0023H50.9902C51.5762 52.1469 52.6667 50.6169 54.2617 49.4125C55.8568 48.208 57.6797 47.6058 59.7305 47.6058C60.4141 47.6058 61.0732 47.6709 61.708 47.8011C62.3428 47.9314 62.9531 48.1429 63.5391 48.4359ZM55.8242 31.4437C55.8242 31.3786 55.8486 31.3135 55.8975 31.2484C55.9463 31.1833 56.0195 31.1508 56.1172 31.1508H56.8008C57.1914 31.1508 57.5332 31.0043 57.8262 30.7113C58.1191 30.4183 58.2656 30.0765 58.2656 29.6859C58.2656 29.2953 58.1191 28.9535 57.8262 28.6605C57.5332 28.3676 57.1914 28.2211 56.8008 28.2211H56.1172C55.2383 28.2211 54.4814 28.5385 53.8467 29.1732C53.2119 29.808 52.8945 30.5648 52.8945 31.4437V33.348H55.8242V31.4437Z" fill="white"/>
</g>
<defs>
<clipPath id="clip0_4138_1132">
<rect width="50" height="50" fill="white" transform="matrix(1 0 0 -1 15.9805 65.7699)"/>
</clipPath>
</defs>
</svg>
