<svg width="81" height="81" viewBox="0 0 81 81" fill="none" xmlns="http://www.w3.org/2000/svg">
<rect x="0.970703" y="0.769897" width="80" height="80" rx="8" fill="#C5CE38"/>
<g clip-path="url(#clip0_4138_1143)">
<path d="M31.0586 24.4613L33.1094 22.4105L39.2129 28.4652C39.3757 28.6605 39.5465 28.8558 39.7256 29.0511C39.9046 29.2465 40.0755 29.4418 40.2383 29.6371C41.2148 28.2048 41.6217 26.6097 41.459 24.8519C41.2962 23.0941 40.5964 21.5967 39.3594 20.3597C37.8945 18.8623 36.21 17.723 34.3057 16.9418C32.4014 16.1605 30.4076 15.7699 28.3242 15.7699H24.418V19.6761C24.418 21.7595 24.8086 23.7533 25.5898 25.6576C26.3711 27.5619 27.5104 29.2465 29.0078 30.7113C30.2448 31.9483 31.7259 32.6482 33.4512 32.8109C35.1764 32.9737 36.7552 32.5993 38.1875 31.6879C38.0247 31.4926 37.8538 31.2972 37.6748 31.1019C37.4958 30.9066 37.3086 30.7113 37.1133 30.516L31.0586 24.4613ZM54.8867 22.4105L56.9375 24.4613L50.8828 30.516C50.6875 30.7113 50.5003 30.9066 50.3213 31.1019C50.1423 31.2972 49.9714 31.4926 49.8086 31.6879C51.2409 32.5993 52.8197 32.9737 54.5449 32.8109C56.2702 32.6482 57.7513 31.9483 58.9883 30.7113C60.4857 29.2465 61.625 27.5619 62.4062 25.6576C63.1875 23.7533 63.5781 21.7595 63.5781 19.6761V15.7699H59.6719C57.5885 15.7699 55.5947 16.1605 53.6904 16.9418C51.7861 17.723 50.1016 18.8623 48.6367 20.3597C47.3997 21.5967 46.6999 23.0941 46.5371 24.8519C46.3743 26.6097 46.7812 28.2048 47.7578 29.6371C47.9206 29.4418 48.0915 29.2465 48.2705 29.0511C48.4495 28.8558 48.6204 28.6605 48.7832 28.4652L54.8867 22.4105ZM48.6367 30.7113C48.474 30.5485 48.3193 30.3776 48.1729 30.1986C48.0264 30.0196 47.888 29.8324 47.7578 29.6371C46.944 30.5485 46.2279 31.5251 45.6094 32.5668C44.9909 33.6084 44.4538 34.6989 43.998 35.8383C43.5749 34.6989 43.0459 33.6084 42.4111 32.5668C41.7764 31.5251 41.0521 30.5485 40.2383 29.6371C40.1081 29.8324 39.9697 30.0196 39.8232 30.1986C39.6768 30.3776 39.5221 30.5485 39.3594 30.7113C39.1641 30.9066 38.9688 31.0775 38.7734 31.224C38.5781 31.3705 38.3828 31.5251 38.1875 31.6879C39.4245 33.1853 40.401 34.8698 41.1172 36.7416C41.8333 38.6133 42.2728 40.5258 42.4355 42.4789C41.2637 42.6091 40.1406 42.8939 39.0664 43.3334C37.9922 43.7728 36.9993 44.3344 36.0879 45.0179C36.5111 45.2458 36.9261 45.4981 37.333 45.7748C37.7399 46.0515 38.1712 46.3363 38.627 46.6293L43.998 46.7269C45.9837 46.7269 47.8229 47.2722 49.5156 48.3627C51.2083 49.4532 52.4779 50.9099 53.3242 52.7328V52.7816C53.8451 52.4886 54.3496 52.1713 54.8379 51.8295C55.3262 51.4877 55.7982 51.1377 56.2539 50.7797C55.4076 48.5336 54.0322 46.6618 52.1279 45.1644C50.2236 43.667 48.0345 42.7719 45.5605 42.4789C45.7233 40.5258 46.1628 38.6133 46.8789 36.7416C47.5951 34.8698 48.5716 33.1853 49.8086 31.6879C49.6133 31.5251 49.418 31.3705 49.2227 31.224C49.0273 31.0775 48.832 30.9066 48.6367 30.7113ZM33.2559 64.5492C34.5905 64.8747 35.9414 65.1595 37.3086 65.4037C38.6758 65.6478 40.2871 65.7699 42.1426 65.7699C44.6165 65.7699 46.7975 65.5095 48.6855 64.9886C50.541 64.4353 52.3395 63.6784 54.0811 62.7181C55.8226 61.7579 57.6211 60.6104 59.4766 59.2758C61.332 57.9086 63.4967 56.4274 65.9707 54.8324C65.9056 54.7673 65.873 54.7266 65.873 54.7103C65.873 54.6941 65.6289 54.3116 65.1406 53.5629C64.3919 52.4561 63.334 51.8539 61.9668 51.7562C60.5996 51.6586 59.3952 52.0329 58.3535 52.8793C57.2793 53.7256 56.14 54.5069 54.9355 55.223C53.7311 55.9066 52.486 56.4926 51.2002 56.9808C49.9144 57.4691 48.5879 57.8435 47.2207 58.1039C45.8861 58.3643 44.5189 58.4782 43.1191 58.4457C40.8405 58.4457 38.9281 58.2015 37.3818 57.7133C35.8356 57.225 34.9648 56.9483 34.7695 56.8832L35.6484 54.1488C35.9089 54.2139 36.682 54.4499 37.9678 54.8568C39.2536 55.2637 40.9056 55.4834 42.9238 55.516C44.2585 55.5811 45.5768 55.4672 46.8789 55.1742C48.181 54.8812 49.4342 54.4743 50.6387 53.9535C50.0527 52.684 49.1657 51.6504 47.9775 50.8529C46.7894 50.0554 45.4629 49.6566 43.998 49.6566H38.8223C38.4967 49.6566 38.1712 49.6078 37.8457 49.5101C37.5202 49.4125 37.2272 49.266 36.9668 49.0707C33.7767 46.9222 31.4004 45.7504 29.8379 45.5551C28.2754 45.3597 26.013 46.2386 23.0508 48.1918H15.9707V62.8402H17.4355C21.5371 62.8402 24.7598 63.0274 27.1035 63.4017C29.4473 63.7761 31.498 64.1586 33.2559 64.5492Z" fill="white"/>
</g>
<defs>
<clipPath id="clip0_4138_1143">
<rect width="50" height="50" fill="white" transform="matrix(1 0 0 -1 15.9707 65.7699)"/>
</clipPath>
</defs>
</svg>
