<svg width="81" height="81" viewBox="0 0 81 81" fill="none" xmlns="http://www.w3.org/2000/svg">
<rect x="0.950195" y="0.769897" width="80" height="80" rx="8" fill="#C5CE38"/>
<g clip-path="url(#clip0_4138_1154)">
<path d="M37.2393 34.5687H44.417V28.2211L40.8037 22.4594L37.2393 28.2211V34.5687ZM34.3096 29.2953H15.9502V65.7699H30.0615V46.9711L34.3096 40.1351V29.2953ZM39.3389 19.2855V15.7699H20.9795V20.1156L17.1221 26.3656H34.9443L39.3389 19.2855ZM50.7646 43.3578L47.9814 47.8011V65.7699H53.5479V47.8011L50.7646 43.3578ZM32.9912 48.8265H45.0518V65.7699H32.9912V48.8265ZM49.2998 37.4984H37.2393V40.9652L34.1631 45.8969H45.7354L49.2998 40.1351V37.4984Z" fill="white"/>
</g>
<defs>
<clipPath id="clip0_4138_1154">
<rect width="50" height="50" fill="white" transform="matrix(1 0 0 -1 15.9502 65.7699)"/>
</clipPath>
</defs>
</svg>
